<svg width="58" height="39" viewBox="0 0 58 39" fill="none" xmlns="http://www.w3.org/2000/svg">
<path d="M53.6618 0H24.1431C21.7854 0 19.8049 1.97349 19.8049 4.32289V4.98072H6.88455C6.03577 4.98072 5.2813 5.4506 4.90406 6.20241L0.188618 15.694C4.21594e-08 15.9759 0 16.3518 0 16.7277V31.388C0 32.3277 0.754471 33.0795 1.69756 33.0795H4.43252C4.90406 36.4627 7.82764 39 11.3171 39C14.8065 39 17.7301 36.3687 18.2016 33.0795H21.5024H38.3837C38.8553 36.4627 41.7789 39 45.2683 39C48.7577 39 51.6813 36.3687 52.1528 33.0795H55.6423C56.9626 33.0795 58 32.0458 58 30.7301V4.22892C58 1.87952 56.0195 0 53.6618 0ZM7.54472 8.1759H19.8992V14.7542H4.2439L7.54472 8.1759ZM11.2228 35.6169C9.14797 35.6169 7.54472 33.9253 7.54472 31.9518C7.54472 29.9783 9.24228 28.2867 11.2228 28.2867C13.2033 28.2867 14.9008 29.9783 14.9008 31.9518C14.9008 33.9253 13.2976 35.6169 11.2228 35.6169ZM11.2228 24.9976C8.20488 24.9976 5.56423 26.9711 4.62114 29.6964H3.30081V18.1373H19.8992V29.6964H17.9187C16.8813 26.9711 14.335 24.9976 11.2228 24.9976ZM45.2683 35.6169C43.1935 35.6169 41.5902 33.9253 41.5902 31.9518C41.5902 29.9783 43.2878 28.2867 45.2683 28.2867C47.2488 28.2867 48.9463 29.9783 48.9463 31.9518C48.9463 33.9253 47.2488 35.6169 45.2683 35.6169ZM54.6992 29.6964H51.8699C50.9268 26.9711 48.2862 24.9976 45.2683 24.9976C42.2504 24.9976 39.6098 26.9711 38.6667 29.6964H23.1057V4.22892C23.1057 3.66506 23.5772 3.19518 24.1431 3.19518H53.6618C54.2276 3.19518 54.6992 3.66506 54.6992 4.22892V29.6964Z" fill="#EA2A35"/>
</svg>
