<svg width="36" height="52" viewBox="0 0 36 52" fill="none" xmlns="http://www.w3.org/2000/svg">
<path d="M24.2563 24.6187H11.7438C7.35627 24.6187 3.70002 21.2062 3.70002 16.9812C3.70002 12.7562 7.27502 9.34373 11.7438 9.34373H30.35C31.1625 9.34373 31.8125 8.69373 31.8125 7.88123C31.8125 7.06873 31.0813 6.49998 30.2688 6.49998H21.0875V2.43748C21.0875 1.62498 20.4375 0.974976 19.625 0.974976C18.8125 0.974976 18.2438 1.62498 18.2438 2.43748V6.49998H11.6625C5.65002 6.49998 0.775024 11.2125 0.775024 16.9812C0.775024 22.75 5.65002 27.4625 11.6625 27.4625H24.2563C28.6438 27.4625 32.3 30.875 32.3 35.1C32.3 39.325 28.725 42.7375 24.2563 42.7375H3.05002C2.23752 42.7375 1.58752 43.3875 1.58752 44.2C1.58752 45.0125 2.23752 45.6625 3.05002 45.6625H18.2438V49.725C18.2438 50.5375 18.8938 51.1875 19.7063 51.1875C20.5188 51.1875 21.1688 50.5375 21.1688 49.725V45.6625H24.3375C30.35 45.6625 35.225 40.95 35.225 35.1812C35.225 29.4125 30.2688 24.6187 24.2563 24.6187Z" fill="#EA2A35"/>
</svg>
