<svg width="16" height="16" viewBox="0 0 16 16" fill="none" xmlns="http://www.w3.org/2000/svg">
<path d="M7.69167 0C5.60434 0 5.34186 0.01 4.52174 0.048C3.70161 0.088 3.14301 0.222 2.65362 0.42C2.1403 0.620819 1.67533 0.935826 1.29124 1.343C0.899998 1.7427 0.597169 2.22624 0.403812 2.76C0.213444 3.268 0.0836469 3.85 0.04615 4.7C0.00961458 5.555 0 5.827 0 8.001C0 10.173 0.00961458 10.445 0.04615 11.298C0.0846083 12.15 0.213444 12.731 0.403812 13.24C0.600911 13.766 0.86339 14.212 1.29124 14.657C1.71813 15.102 2.14694 15.376 2.65266 15.58C3.14301 15.778 3.70065 15.913 4.51982 15.952C5.3409 15.99 5.60242 16 7.69167 16C9.78091 16 10.0415 15.99 10.8626 15.952C11.6808 15.912 12.2413 15.778 12.7307 15.58C13.2437 15.3791 13.7083 15.0641 14.0921 14.657C14.5199 14.212 14.7824 13.766 14.9795 13.24C15.1689 12.731 15.2987 12.15 15.3372 11.298C15.3737 10.445 15.3833 10.173 15.3833 8C15.3833 5.827 15.3737 5.555 15.3372 4.701C15.2987 3.85 15.1689 3.268 14.9795 2.76C14.7862 2.22623 14.4834 1.74268 14.0921 1.343C13.7081 0.935676 13.2431 0.620645 12.7297 0.42C12.2394 0.222 11.6798 0.087 10.8616 0.048C10.0405 0.01 9.77995 0 7.68974 0H7.69263H7.69167ZM7.0023 1.442H7.69263C9.7463 1.442 9.98955 1.449 10.8001 1.488C11.55 1.523 11.9577 1.654 12.2288 1.763C12.5874 1.908 12.8441 2.082 13.1133 2.362C13.3825 2.642 13.5489 2.908 13.6883 3.282C13.794 3.563 13.919 3.987 13.9527 4.767C13.9902 5.61 13.9979 5.863 13.9979 7.998C13.9979 10.133 13.9902 10.387 13.9527 11.23C13.919 12.01 13.7931 12.433 13.6883 12.715C13.565 13.0624 13.3681 13.3764 13.1124 13.634C12.8432 13.914 12.5874 14.087 12.2278 14.232C11.9586 14.342 11.551 14.472 10.8001 14.508C9.98955 14.546 9.7463 14.555 7.69263 14.555C5.63895 14.555 5.39474 14.546 4.58423 14.508C3.8343 14.472 3.4276 14.342 3.15647 14.232C2.82236 14.1039 2.5201 13.8996 2.27193 13.634C2.01594 13.376 1.81881 13.0617 1.69505 12.714C1.59025 12.433 1.4643 12.009 1.43065 11.229C1.39411 10.386 1.38642 10.133 1.38642 7.996C1.38642 5.86 1.39411 5.608 1.43065 4.765C1.46526 3.985 1.59025 3.561 1.69601 3.279C1.83542 2.906 2.00272 2.639 2.27193 2.359C2.54113 2.079 2.79688 1.906 3.15647 1.761C3.4276 1.651 3.8343 1.521 4.58423 1.485C5.29379 1.451 5.56877 1.441 7.0023 1.44V1.442ZM11.7981 2.77C11.6768 2.77 11.5568 2.79483 11.4448 2.84308C11.3329 2.89132 11.2311 2.96203 11.1454 3.05118C11.0597 3.14032 10.9917 3.24615 10.9453 3.36262C10.8989 3.4791 10.8751 3.60393 10.8751 3.73C10.8751 3.85607 10.8989 3.9809 10.9453 4.09738C10.9917 4.21385 11.0597 4.31968 11.1454 4.40882C11.2311 4.49797 11.3329 4.56868 11.4448 4.61692C11.5568 4.66517 11.6768 4.69 11.7981 4.69C12.0428 4.69 12.2776 4.58886 12.4507 4.40882C12.6238 4.22879 12.7211 3.98461 12.7211 3.73C12.7211 3.47539 12.6238 3.23121 12.4507 3.05118C12.2776 2.87114 12.0428 2.77 11.7981 2.77ZM7.69263 3.892C7.1687 3.8835 6.64838 3.98349 6.16196 4.18614C5.67555 4.3888 5.23275 4.69007 4.85935 5.07242C4.48596 5.45478 4.18942 5.91057 3.98701 6.41326C3.78461 6.91595 3.68037 7.4555 3.68037 8.0005C3.68037 8.5455 3.78461 9.08505 3.98701 9.58774C4.18942 10.0904 4.48596 10.5462 4.85935 10.9286C5.23275 11.3109 5.67555 11.6122 6.16196 11.8149C6.64838 12.0175 7.1687 12.1175 7.69263 12.109C8.7296 12.0922 9.71862 11.6519 10.4462 10.8833C11.1738 10.1146 11.5816 9.07917 11.5816 8.0005C11.5816 6.92183 11.1738 5.88641 10.4462 5.11775C9.71862 4.34909 8.7296 3.90883 7.69263 3.892ZM7.69263 5.333C8.3727 5.333 9.02491 5.61399 9.5058 6.11415C9.98668 6.61431 10.2568 7.29267 10.2568 8C10.2568 8.70733 9.98668 9.38569 9.5058 9.88585C9.02491 10.386 8.3727 10.667 7.69263 10.667C7.01256 10.667 6.36034 10.386 5.87946 9.88585C5.39857 9.38569 5.12842 8.70733 5.12842 8C5.12842 7.29267 5.39857 6.61431 5.87946 6.11415C6.36034 5.61399 7.01256 5.333 7.69263 5.333Z" fill="#1E1F2F"/>
</svg>
