<svg width="16" height="17" viewBox="0 0 16 17" fill="none" xmlns="http://www.w3.org/2000/svg">
<path d="M0 1.21763C0 0.545063 0.505727 0 1.12971 0H14.2536C14.8776 0 15.3833 0.545063 15.3833 1.21763V15.7824C15.3833 16.4549 14.8776 17 14.2536 17H1.12971C0.505727 17 0 16.4549 0 15.7824V1.21763ZM4.75249 14.2311V6.55456H2.44403V14.2311H4.75249ZM3.59874 5.50588C4.40348 5.50588 4.9044 4.91725 4.9044 4.17987C4.88998 3.42656 4.40444 2.85388 3.61412 2.85388C2.8238 2.85388 2.3075 3.42762 2.3075 4.17987C2.3075 4.91725 2.80842 5.50588 3.58335 5.50588H3.59874ZM8.31757 14.2311V9.94394C8.31757 9.71444 8.33296 9.48494 8.39449 9.32131C8.56082 8.86337 8.9406 8.38844 9.57901 8.38844C10.4145 8.38844 10.7481 9.09181 10.7481 10.1246V14.2311H13.0566V9.82812C13.0566 7.46938 11.9182 6.37287 10.3991 6.37287C9.17423 6.37287 8.62524 7.11662 8.31757 7.64044V7.667H8.30219C8.3073 7.65813 8.31243 7.64928 8.31757 7.64044V6.55456H6.01008C6.03892 7.27494 6.01008 14.2311 6.01008 14.2311H8.31757Z" fill="#1E1F2F"/>
</svg>
