<svg width="18" height="20" viewBox="0 0 18 20" fill="none" xmlns="http://www.w3.org/2000/svg">
<path d="M14.3334 6.33333C15.8062 6.33333 17.0001 5.13943 17.0001 3.66667C17.0001 2.19391 15.8062 1 14.3334 1C12.8607 1 11.6667 2.19391 11.6667 3.66667C11.6667 5.13943 12.8607 6.33333 14.3334 6.33333Z" stroke="black" stroke-width="2" stroke-linecap="round" stroke-linejoin="round"/>
<path d="M3.66667 12.5555C5.13943 12.5555 6.33333 11.3616 6.33333 9.88883C6.33333 8.41608 5.13943 7.22217 3.66667 7.22217C2.19391 7.22217 1 8.41608 1 9.88883C1 11.3616 2.19391 12.5555 3.66667 12.5555Z" stroke="black" stroke-width="2" stroke-linecap="round" stroke-linejoin="round"/>
<path d="M14.3334 18.7777C15.8062 18.7777 17.0001 17.5838 17.0001 16.111C17.0001 14.6382 15.8062 13.4443 14.3334 13.4443C12.8607 13.4443 11.6667 14.6382 11.6667 16.111C11.6667 17.5838 12.8607 18.7777 14.3334 18.7777Z" stroke="black" stroke-width="2" stroke-linecap="round" stroke-linejoin="round"/>
<path d="M5.96899 11.2312L12.0401 14.769" stroke="black" stroke-width="2" stroke-linecap="round" stroke-linejoin="round"/>
<path d="M12.0312 5.00879L5.96899 8.54657" stroke="black" stroke-width="2" stroke-linecap="round" stroke-linejoin="round"/>
</svg>
