<svg width="50" height="50" viewBox="0 0 50 50" fill="none" xmlns="http://www.w3.org/2000/svg">
<path d="M11.5938 49.9438C10.9438 49.9438 10.2938 49.7813 9.72501 49.375C8.66876 48.6438 8.10001 47.3438 8.34376 46.0438L10.5375 32.2313L1.03126 22.4C0.137513 21.5063 -0.187487 20.125 0.218763 18.9063C0.625013 17.6875 1.60001 16.875 2.81876 16.6313L16.0625 14.5188L21.9938 1.92502C22.5625 0.787524 23.7 0.0562744 24.9188 0.0562744C26.2188 0.0562744 27.275 0.787524 27.8438 1.92502L33.9375 14.4375L47.1813 16.55C48.4 16.7125 49.375 17.6063 49.7813 18.825C50.1875 20.0438 49.8625 21.425 48.9688 22.3188L39.3813 32.15L41.6563 46.0438C41.9 47.3438 41.3313 48.6438 40.275 49.375C39.3 50.1063 38 50.1875 36.8625 49.6188L25 43.1188L13.1375 49.6188C12.65 49.8625 12.1625 49.9438 11.5938 49.9438ZM3.06251 20.45L12.8938 30.525C13.3813 31.0125 13.625 31.7438 13.4625 32.475L11.1875 46.5313C11.1063 46.8563 11.35 47.0188 11.4313 47.1C11.5938 47.2625 11.7563 47.1813 11.8375 47.1L24.025 40.4375C24.675 40.1125 25.4063 40.1125 26.0563 40.4375L38.2438 47.0188C38.325 47.0188 38.4063 47.1 38.65 47.0188C38.7313 46.9375 38.8938 46.775 38.8938 46.45L36.6188 32.3125C36.5375 31.5813 36.7 30.9313 37.1875 30.3625L46.9375 20.2875C47.1813 20.0438 47.1 19.8 47.1 19.6375C47.1 19.5563 46.9375 19.3125 46.775 19.3125L33.125 17.2C32.3938 17.1188 31.825 16.6313 31.5 15.9813L25.4063 3.14377C25.325 2.90002 25.1625 2.90002 25 2.90002C24.9188 2.90002 24.7563 2.98127 24.5938 3.14377L18.5 16.0625C18.175 16.7125 17.6063 17.2 16.875 17.2813L3.30626 19.475C3.06251 19.475 2.98126 19.7188 2.98126 19.8C2.90001 19.8813 2.81876 20.2063 3.06251 20.45Z" fill="#EA2A35"/>
</svg>
