<svg width="17" height="14" viewBox="0 0 17 14" fill="none" xmlns="http://www.w3.org/2000/svg">
<path d="M5.13431 14C11.3024 14 14.6766 8.61244 14.6766 3.94854C14.6766 3.79777 14.6766 3.64486 14.6705 3.4941C15.3274 2.9928 15.8943 2.37217 16.3448 1.66127C15.7312 1.94648 15.0809 2.13445 14.4151 2.21909C15.1164 1.77718 15.6417 1.08189 15.8933 0.262425C15.2344 0.673921 14.5132 0.96279 13.7613 1.11638C13.2558 0.548897 12.5869 0.172956 11.8582 0.0467905C11.1295 -0.0793753 10.3817 0.0512745 9.7306 0.418503C9.07948 0.785731 8.56141 1.36904 8.25662 2.07808C7.95183 2.78713 7.87735 3.58233 8.0447 4.34052C6.71131 4.27004 5.40687 3.90489 4.21598 3.26876C3.02508 2.63262 1.97433 1.73972 1.13188 0.647943C0.704195 1.42661 0.573675 2.34767 0.766822 3.22409C0.959969 4.10052 1.4623 4.8666 2.17181 5.36677C1.64014 5.34773 1.12015 5.19723 0.653791 4.92741V4.97587C0.654708 5.79157 0.922773 6.58192 1.41267 7.21333C1.90257 7.84474 2.58426 8.27848 3.34251 8.44122C3.0547 8.5248 2.7574 8.56647 2.45887 8.56506C2.24841 8.56573 2.03838 8.54518 1.83164 8.50368C2.04595 9.20586 2.46323 9.81979 3.02506 10.2595C3.58688 10.6992 4.26511 10.9426 4.96473 10.9557C3.77621 11.9397 2.30809 12.4734 0.796808 12.4708C0.530512 12.472 0.264401 12.4559 0 12.4224C1.53387 13.4532 3.31523 14.0006 5.13431 14Z" fill="#1E1F2F"/>
</svg>
